# xmcd
#
# Track frame offsets: 
#        150
#        16677
#        33150
#        50359
#        67780
#        85981
#        100682
#        116813
#        133030
#        147833
#        163543
#        179775
#
# Disc length: 2590 seconds
#
# Revision: 0
# Processed by: cddbd v1.5.2PL0 Copyright (c) Steve Scherf et al.
# Submitted via: ExactAudioCopy v0.99pb5
#
DISCID=980a1c0c
DTITLE=Gilla - Willst Du Mit Mir Schlafen Gehen
DYEAR=1975
DGENRE=Disco
TTITLE0=Willst Du Mit Mir Schlafen Gehen?
TTITLE1=Ein Baby Von Dir
TTITLE2=Mir Ist Kein Weg Zu Weit (Nessuno Mai)
TTITLE3=So Nah (Seltsam)
TTITLE4=Bleib Bei Mir Geh Doch (Vado Via)
TTITLE5=Lass Mir Zeit Dich Zu Lieben
TTITLE6=Tu Es
TTITLE7=Lass Die Nacht Aus Dem Spiel
TTITLE8=Worte
TTITLE9=Du Bist Nicht Die Erste Liebe
TTITLE10=Lieben Und Frei Sein
TTITLE11=Du Bist Da (Reach Out I'll Be There)
EXTD=
EXTT0=
EXTT1=
EXTT2=
EXTT3=
EXTT4=
EXTT5=
EXTT6=
EXTT7=
EXTT8=
EXTT9=
EXTT10=
EXTT11=
PLAYORDER=
